<svg xmlns="http://www.w3.org/2000/svg" viewBox="0 0 2000 1823" fill="none">
  <path fill="#0033AD" d="M975.38 18.13c-17.7 0-34.36 9.69-43.13 25.31L749.38 418.75c-8.76 15.62-8.76 34.38 0 50l182.87 375.31c8.77 15.62 25.43 25.31 43.13 25.31h365.74c17.7 0 34.36-9.69 43.13-25.31l182.87-375.31c8.76-15.62 8.76-34.38 0-50L1384.25 43.44c-8.77-15.62-25.43-25.31-43.13-25.31H975.38zM1629.38 512.5c-17.7 0-34.36 9.69-43.13 25.31l-182.87 375.31c-8.76 15.62-8.76 34.38 0 50l182.87 375.31c8.77 15.62 25.43 25.31 43.13 25.31h365.74c17.7 0 34.36-9.69 43.13-25.31l182.87-375.31c8.76-15.62 8.76-34.38 0-50l-182.87-375.31c-8.77-15.62-25.43-25.31-43.13-25.31h-365.74zM321.38 512.5c-17.7 0-34.36 9.69-43.13 25.31L95.38 913.12c-8.76 15.62-8.76 34.38 0 50l182.87 375.31c8.77 15.62 25.43 25.31 43.13 25.31h365.74c17.7 0 34.36-9.69 43.13-25.31l182.87-375.31c8.76-15.62 8.76-34.38 0-50L730.25 537.81c-8.77-15.62-25.43-25.31-43.13-25.31H321.38zM975.38 1006.88c-17.7 0-34.36 9.69-43.13 25.31l-182.87 375.31c-8.76 15.62-8.76 34.38 0 50l182.87 375.31c8.77 15.62 25.43 25.31 43.13 25.31h365.74c17.7 0 34.36-9.69 43.13-25.31l182.87-375.31c8.76-15.62 8.76-34.38 0-50l-182.87-375.31c-8.77-15.62-25.43-25.31-43.13-25.31H975.38z"/>
</svg>
